<svg focusable="false"
     xmlns="http://www.w3.org/2000/svg" viewBox="0 0 196.5 196.5" class="svg-inline--fa fa-times-square fa-w-14">
    <path fill="currentColor"
          d="M193.1,29l-69.3,69.3l69.3,69.3c4.7,4.7,4.7,12.3,0,17l-8.5,8.5c-4.7,4.7-12.3,4.7-17,0l-69.3-69.3L29,193.1
	c-4.7,4.7-12.3,4.7-17,0l-8.5-8.5c-4.7-4.7-4.7-12.3,0-17l69.3-69.3L3.5,29c-4.7-4.7-4.7-12.3,0-17L12,3.5c4.7-4.7,12.3-4.7,17,0
	l69.3,69.3l69.3-69.3c4.7-4.7,12.3-4.7,17,0l8.5,8.5C197.7,16.7,197.7,24.3,193.1,29L193.1,29z"
          class=""/>
</svg>